<svg width="300" height="300" viewBox="0 0 300 300" fill="none" xmlns="http://www.w3.org/2000/svg">
<g clip-path="url(#clip0_1_2)">
<path d="M219 178C218.833 181.667 218.417 186 217.75 191C217.083 196 215.5 200.417 213 204.25C210.5 206.75 207 209.5 202.5 212.5C198 215.333 193.5 217.917 189 220.25C184.5 222.583 181 224.25 178.5 225.25C177 226.417 173.75 227.167 168.75 227.5C163.917 228 158.167 228.167 151.5 228C145 228 138.417 227.667 131.75 227C125.083 226.333 119.25 225.417 114.25 224.25C109.417 223.25 106.25 222 104.75 220.5C101.083 218.833 96.5 217 91 215C85.6667 212.833 81.0833 210.167 77.25 207C75.0833 205 73 202.667 71 200C69 197.167 67.6667 194.25 67 191.25C66.1667 188.25 66.4167 185.5 67.75 183C68.5833 181.167 69.9167 179.5 71.75 178C73.4167 176.333 74.9167 174.75 76.25 173.25C76.5833 172.75 77 172.333 77.5 172C78 171.5 78.4167 171.083 78.75 170.75C79.0833 170.25 79.4167 169.333 79.75 168C80.0833 167.667 80.3333 167.25 80.5 166.75C80.8333 166.25 81 165.833 81 165.5C81.1667 165.167 81.1667 164.75 81 164.25C80.8333 163.583 80.6667 163.083 80.5 162.75C80.5 162.417 80.5 162 80.5 161.5C80.5 161 80.3333 160.583 80 160.25C79.8333 159.75 79.4167 159 78.75 158C77.9167 156.667 77 155.333 76 154C75 152.667 74.0833 151.333 73.25 150C71.0833 146.167 69.5 141.917 68.5 137.25C67.5 132.583 67.3333 128.417 68 124.75C68.6667 122.25 70.1667 119.167 72.5 115.5C74.6667 111.667 77.1667 107.917 80 104.25C83 100.583 85.75 97.5 88.25 95C91.25 92.1667 94.25 89.4167 97.25 86.75C100.417 83.9167 103.833 81.4167 107.5 79.25C109 77.75 112 76.4167 116.5 75.25C121.167 73.9167 126.5 72.8333 132.5 72C138.667 71.1667 144.75 70.5833 150.75 70.25C156.75 69.9167 162 69.9167 166.5 70.25C171.167 70.5833 174.25 71.3333 175.75 72.5C179.583 73.6667 183.833 75.3333 188.5 77.5C193.167 79.5 197.333 82 201 85C202.833 86.5 204.5 88.0833 206 89.75C207.667 91.4167 209.083 93.25 210.25 95.25C211.417 97.75 212.167 100.333 212.5 103C212.667 103.333 212.833 103.833 213 104.5C213.167 105 213.167 105.417 213 105.75C212.833 106.083 212.5 106.417 212 106.75C211.667 107.083 211.333 107.417 211 107.75C210.833 107.917 210.583 108.25 210.25 108.75C209.917 109.25 209.583 109.5 209.25 109.5C209.083 109.667 208.917 109.667 208.75 109.5C208.583 109.167 208.333 108.917 208 108.75C207.5 108.417 207 108.083 206.5 107.75C206 107.417 205.583 107.083 205.25 106.75C204.417 106.083 203.583 105.417 202.75 104.75C201.917 103.917 201.083 103.333 200.25 103C199.75 102.667 199.167 102.5 198.5 102.5C197.833 102.333 197.25 102.167 196.75 102C195.75 101.667 195 101.5 194.5 101.5C193.833 101.5 193.167 101.667 192.5 102C191.333 102.167 190.25 102.5 189.25 103C188.25 103.333 187.25 103.75 186.25 104.25C183.583 105.917 180.833 107.75 178 109.75C175.333 111.583 172.833 113.5 170.5 115.5C168.5 117 166.917 118.667 165.75 120.5C165.583 120.667 165.333 121 165 121.5C164.667 121.833 164.5 122.083 164.5 122.25C164.5 122.917 164.833 123.583 165.5 124.25C165.667 124.417 165.833 124.75 166 125.25C166.167 125.583 166.333 125.917 166.5 126.25C166.667 126.417 167 126.5 167.5 126.5C168 126.5 168.333 126.583 168.5 126.75C169.667 126.917 170.75 127.083 171.75 127.25C172.917 127.417 174.083 127.583 175.25 127.75C183.417 128.083 191.5 128.083 199.5 127.75C200.833 127.75 202.167 127.75 203.5 127.75C204.833 127.583 206.167 127.667 207.5 128C207.833 128.167 208.333 128.25 209 128.25C209.667 128.25 210.083 128.417 210.25 128.75C210.583 128.917 210.833 129.333 211 130C211.167 130.5 211.333 130.917 211.5 131.25C212.167 132.75 212.583 134.333 212.75 136C213.083 137.5 213.5 139 214 140.5C214.833 142.667 215.667 144.917 216.5 147.25C217.333 149.417 218.083 151.667 218.75 154C219.583 157.667 219.917 161.583 219.75 165.75C219.583 169.75 219.333 173.833 219 178ZM208 154C206.833 152.667 205.583 151.417 204.25 150.25C202.917 149.083 201.5 148 200 147C197.5 144.833 194.25 143.083 190.25 141.75C186.417 140.25 182.5 139 178.5 138C174.5 137 171.25 136.167 168.75 135.5C166.583 135.167 164.417 134.833 162.25 134.5C160.25 134 158.25 133.417 156.25 132.75C155.417 132.417 154.583 132.083 153.75 131.75C152.917 131.417 152.083 131 151.25 130.5C150.917 130.167 150.333 129.75 149.5 129.25C148.833 128.75 148.333 128.25 148 127.75L148.25 125.75C148.25 125.417 148.25 124.917 148.25 124.25C148.25 123.583 148.333 123.167 148.5 123C148.667 122.667 148.917 122.417 149.25 122.25C149.583 122.083 149.833 121.917 150 121.75C150.833 121.083 151.583 120.5 152.25 120C152.917 119.333 153.667 118.75 154.5 118.25C157.333 116.417 160.083 114.333 162.75 112C165.583 109.667 168.25 107.25 170.75 104.75C172.417 103.083 173.833 101.333 175 99.5C175.833 98.6667 176.25 98.0833 176.25 97.75C176.417 97.4167 176.417 97.0833 176.25 96.75C176.25 96.25 176.25 95.9167 176.25 95.75C176.25 95.4167 176.25 94.9167 176.25 94.25C176.417 93.5833 176.417 93.0833 176.25 92.75C176.083 92.4167 175.75 92.0833 175.25 91.75C174.917 91.4167 174.583 91.1667 174.25 91C172.75 89.6667 171 88.75 169 88.25C167 87.75 165.083 87.3333 163.25 87C161.417 86.3333 158.333 85.9167 154 85.75C149.833 85.5833 145.25 85.6667 140.25 86C135.25 86.1667 130.583 86.6667 126.25 87.5C122.083 88.1667 119.083 89.1667 117.25 90.5C115.417 91.8333 112.75 94.0833 109.25 97.25C105.917 100.25 102.417 103.583 98.75 107.25C95.25 110.917 92.1667 114.417 89.5 117.75C86.8333 121.083 85.25 123.667 84.75 125.5C84.5833 130.333 85.25 135.25 86.75 140.25C87.4167 142.083 88.25 144 89.25 146C90.25 147.833 91.3333 149.5 92.5 151C95.3333 154.5 98.75 157.333 102.75 159.5C106.75 161.667 110.583 163.583 114.25 165.25C117.25 166.417 120.25 167.417 123.25 168.25C126.417 168.917 129.583 169.667 132.75 170.5C134.417 170.833 136 171.167 137.5 171.5C139.167 171.833 140.75 172.333 142.25 173C143.083 173.167 143.833 173.417 144.5 173.75C145.333 174.083 146.083 174.417 146.75 174.75C147.083 175.083 147.417 175.583 147.75 176.25C148.25 176.75 148.583 177.167 148.75 177.5C148.917 177.667 149.167 177.917 149.5 178.25C149.833 178.583 150 178.833 150 179C150 179.167 149.75 179.583 149.25 180.25C148.75 180.75 148.25 181.417 147.75 182.25C147.417 182.417 146.833 182.5 146 182.5C145.167 182.333 144.583 182.25 144.25 182.25C142.583 182.25 141 182 139.5 181.5C138 181 136.5 180.583 135 180.25C131.333 178.917 127 178.25 122 178.25C117 178.083 112.583 178 108.75 178C106.25 178 103.75 178 101.25 178C98.75 177.833 96.3333 178 94 178.5C93.3333 178.667 92.4167 178.917 91.25 179.25C90.25 179.417 89.4167 179.667 88.75 180C85.5833 182 84 184.833 84 188.5C84 189 84.1667 189.75 84.5 190.75C84.8333 192.083 85.25 193.417 85.75 194.75C86.4167 195.917 87.1667 197.083 88 198.25C91.1667 201.917 95.4167 205.25 100.75 208.25C106.083 211.25 110.583 213.583 114.25 215.25C116.083 216.583 119.333 217.667 124 218.5C128.667 219.333 133.75 219.833 139.25 220C144.75 220.333 149.833 220.417 154.5 220.25C159.167 220.25 162.417 220 164.25 219.5C166.75 219.167 169.917 218.667 173.75 218C177.583 217.333 181.417 216.5 185.25 215.5C189.083 214.333 192.25 213 194.75 211.5C198.083 209.833 201.167 207.917 204 205.75C206.833 203.417 209.25 200.75 211.25 197.75C213.417 195.25 215 192 216 188C217 184 217.5 180.083 217.5 176.25C217.5 172.25 216.917 169 215.75 166.5C215.083 164.167 214.083 162 212.75 160C211.417 158 209.833 156 208 154Z" fill="#3ECC5F"/>
</g>
<defs>
<clipPath id="clip0_1_2">
<rect width="300" height="300" fill="white"/>
</clipPath>
</defs>
</svg>
